<?xml version="1.0" encoding="utf-8"?>
<!-- Generator: Adobe Illustrator 19.0.0, SVG Export Plug-In . SVG Version: 6.00 Build 0)  -->
<svg xmlns="http://www.w3.org/2000/svg" xmlns:xlink="http://www.w3.org/1999/xlink" version="1.1" id="Capa_1" x="0px" y="0px" viewBox="-275 367 60 60" style="enable-background:new -275 367 60 60;" xml:space="preserve" width="512" height="512">
<style type="text/css">
	.st0{fill:#FFFFFF;fill-opacity:0;}
	.st1{fill:#ECF4F7;}
	.st2{fill:#FF7474;}
	.st3{fill:#AAB1BA;}
	.st4{fill:#80D6FA;}
	.st5{fill:#50DD8E;}
	.st6{fill:#51565F;}
</style>
<title>motel</title>
<desc>Created with Sketch.</desc>
<g id="Travel">
	
	<g id="motel">
		<g id="fill" transform="translate(1.000000, 3.000000)">
			<path id="Combined-Shape" class="st1" d="M-265,421c1.1,0,2-0.9,2-2s-0.9-2-2-2c-0.4,0-0.8,0.1-1.1,0.3c-0.3-1.3-1.5-2.3-2.9-2.3     s-2.6,1-2.9,2.3c-0.3-0.2-0.7-0.3-1.1-0.3v-34h44v4h2v34H-265z"/>
			<path id="Fill-3" class="st2" d="M-223,367c3.3,0,6,2.7,6,6s-2.7,6-6,6s-6-2.7-6-6S-226.3,367-223,367L-223,367z"/>
			<path id="Combined-Shape_1_" class="st3" d="M-237,397h4v-6h-4V397z M-267,409h4v-6h-4V409z M-247,397h4v-6h-4V397z M-257,409h4     v-6h-4V409z M-257,397h4v-6h-4V397z M-267,397h4v-6h-4V397z"/>
			<polygon id="Fill-11" class="st4" points="-235,410 -235,419 -243,419 -243,403 -235,403    "/>
			<path id="Fill-14" class="st5" d="M-265,417c1.1,0,2,0.9,2,2s-0.9,2-2,2h-8c-1.1,0-2-0.9-2-2s0.9-2,2-2c0.4,0,0.8,0.1,1.1,0.3     c0.3-1.3,1.5-2.3,2.9-2.3s2.6,1,2.9,2.3C-265.8,417.1-265.4,417-265,417"/>
			<polygon id="Fill-2" class="st1" points="-223,383 -229,383 -229,387 -227,387 -223,387 -217,387 -217,383    "/>
		</g>
		<path class="st6" d="M-222,424.5c-0.3,0-0.5-0.2-0.5-0.5v-33.5h-5.5c-0.3,0-0.5-0.2-0.5-0.5v-4c0-0.3,0.2-0.5,0.5-0.5h5.5v-3    c-3.4-0.3-6-3.1-6-6.5c0-3.6,2.9-6.5,6.5-6.5s6.5,2.9,6.5,6.5c0,3.4-2.6,6.2-6,6.5v3h5.5c0.3,0,0.5,0.2,0.5,0.5v4    c0,0.3-0.2,0.5-0.5,0.5h-5.5V424C-221.5,424.3-221.7,424.5-222,424.5z M-222,389.5h5.5v-3h-11v3H-222z M-222,370.5    c-3,0-5.5,2.5-5.5,5.5s2.5,5.5,5.5,5.5s5.5-2.5,5.5-5.5S-219,370.5-222,370.5z M-226,424.5c-0.3,0-0.5-0.2-0.5-0.5v-1.5H-258    c-0.3,0-0.5-0.2-0.5-0.5s0.2-0.5,0.5-0.5h32c0.3,0,0.5,0.2,0.5,0.5v2C-225.5,424.3-225.7,424.5-226,424.5z M-264,424.5    c-0.3,0-0.5-0.2-0.5-0.5s0.2-0.5,0.5-0.5c0.8,0,1.5-0.7,1.5-1.5s-0.7-1.5-1.5-1.5c-0.3,0-0.6,0.1-0.8,0.2c-0.1,0.1-0.3,0.1-0.5,0    c-0.2-0.1-0.3-0.2-0.3-0.4c-0.3-1.1-1.3-1.9-2.4-1.9s-2.2,0.8-2.4,1.9c0,0.2-0.1,0.3-0.3,0.4c-0.2,0.1-0.3,0-0.5,0    c-0.2-0.2-0.5-0.2-0.8-0.2c-0.8,0-1.5,0.7-1.5,1.5s0.7,1.5,1.5,1.5c0.3,0,0.5,0.2,0.5,0.5s-0.2,0.5-0.5,0.5    c-1.4,0-2.5-1.1-2.5-2.5s1.1-2.5,2.5-2.5c0.3,0,0.5,0,0.8,0.1c0.5-1.3,1.8-2.1,3.2-2.1s2.7,0.9,3.2,2.1c0.3-0.1,0.5-0.1,0.8-0.1    c1.4,0,2.5,1.1,2.5,2.5S-262.6,424.5-264,424.5z M-226,418.5c-0.3,0-0.5-0.2-0.5-0.5v-24c0-0.3,0.2-0.5,0.5-0.5s0.5,0.2,0.5,0.5    v24C-225.5,418.3-225.7,418.5-226,418.5z M-234,418.5c-0.3,0-0.5-0.2-0.5-0.5v-4.5h-1.5c-0.3,0-0.5-0.2-0.5-0.5s0.2-0.5,0.5-0.5    h1.5v-6h-7V418c0,0.3-0.2,0.5-0.5,0.5s-0.5-0.2-0.5-0.5v-11.5h-1.5c-0.3,0-0.5-0.2-0.5-0.5s0.2-0.5,0.5-0.5h12    c0.3,0,0.5,0.2,0.5,0.5s-0.2,0.5-0.5,0.5h-1.5V418C-233.5,418.3-233.7,418.5-234,418.5z M-272,416.5c-0.3,0-0.5-0.2-0.5-0.5v-32    c0-0.3,0.2-0.5,0.5-0.5s0.5,0.2,0.5,0.5v1.5h39.5c0.3,0,0.5,0.2,0.5,0.5s-0.2,0.5-0.5,0.5h-39.5V416    C-271.5,416.3-271.7,416.5-272,416.5z M-252,412.5h-4c-0.3,0-0.5-0.2-0.5-0.5v-6c0-0.3,0.2-0.5,0.5-0.5h4c0.3,0,0.5,0.2,0.5,0.5v6    C-251.5,412.3-251.7,412.5-252,412.5z M-255.5,411.5h3v-5h-3V411.5z M-262,412.5h-4c-0.3,0-0.5-0.2-0.5-0.5v-6    c0-0.3,0.2-0.5,0.5-0.5h4c0.3,0,0.5,0.2,0.5,0.5v6C-261.5,412.3-261.7,412.5-262,412.5z M-265.5,411.5h3v-5h-3V411.5z M-232,400.5    h-4c-0.3,0-0.5-0.2-0.5-0.5v-6c0-0.3,0.2-0.5,0.5-0.5h4c0.3,0,0.5,0.2,0.5,0.5v6C-231.5,400.3-231.7,400.5-232,400.5z     M-235.5,399.5h3v-5h-3V399.5z M-242,400.5h-4c-0.3,0-0.5-0.2-0.5-0.5v-6c0-0.3,0.2-0.5,0.5-0.5h4c0.3,0,0.5,0.2,0.5,0.5v6    C-241.5,400.3-241.7,400.5-242,400.5z M-245.5,399.5h3v-5h-3V399.5z M-252,400.5h-4c-0.3,0-0.5-0.2-0.5-0.5v-6    c0-0.3,0.2-0.5,0.5-0.5h4c0.3,0,0.5,0.2,0.5,0.5v6C-251.5,400.3-251.7,400.5-252,400.5z M-255.5,399.5h3v-5h-3V399.5z M-262,400.5    h-4c-0.3,0-0.5-0.2-0.5-0.5v-6c0-0.3,0.2-0.5,0.5-0.5h4c0.3,0,0.5,0.2,0.5,0.5v6C-261.5,400.3-261.7,400.5-262,400.5z     M-265.5,399.5h3v-5h-3V399.5z M-220,378.5c-0.3,0-0.5-0.2-0.5-0.5v-2.8l-1.1,1.1c-0.2,0.2-0.5,0.2-0.7,0l-1.1-1.1v2.8    c0,0.3-0.2,0.5-0.5,0.5s-0.5-0.2-0.5-0.5v-4c0-0.2,0.1-0.4,0.3-0.5c0.2-0.1,0.4,0,0.5,0.1l1.6,1.6l1.6-1.6    c0.1-0.1,0.4-0.2,0.5-0.1c0.2,0.1,0.3,0.3,0.3,0.5v4C-219.5,378.3-219.7,378.5-220,378.5z"/>
	</g>
</g>
</svg>
