<?xml version="1.0" encoding="utf-8"?>
<!-- Generator: Adobe Illustrator 17.0.0, SVG Export Plug-In . SVG Version: 6.00 Build 0)  -->
<!DOCTYPE svg PUBLIC "-//W3C//DTD SVG 1.1//EN" "http://www.w3.org/Graphics/SVG/1.1/DTD/svg11.dtd">
<svg version="1.1" id="Layer_1" xmlns="http://www.w3.org/2000/svg" xmlns:xlink="http://www.w3.org/1999/xlink" x="0px" y="0px"
	 width="612px" height="792px" viewBox="0 0 612 792" enable-background="new 0 0 612 792" xml:space="preserve">
<rect x="19.421" y="221.175" fill="#E21B1B" width="573.157" height="480.825"/>
<path fill="#F42222" d="M555.799,665.205H56.214V277.081H555.8v388.124H555.799z M65.777,655.642h480.459V286.644H65.777V655.642z"
	/>
<rect x="19.421" y="139.394" fill="#CCCCCC" width="573.157" height="110.471"/>
<g>
	<rect x="123.353" y="90" fill="#1A1718" width="28.688" height="99.39"/>
	<rect x="459.969" y="90" fill="#1A1718" width="28.688" height="99.39"/>
</g>
<path fill="#FFFFFF" d="M140.54,371.554l-25.299-19.114l-25.299,19.114l9.664-30.927l-25.201-19.028h31.147l9.689-30.994
	l9.689,30.994h31.144l-25.195,19.028L140.54,371.554z"/>
<text transform="matrix(1 0 0 1 115.2394 519.5)" fill="#FFFFFF" font-family="'MyriadPro-Regular'" font-size="190">AFES</text>
<text transform="matrix(1 0 0 1 110.2393 603.5)" fill="#FFFFFF" font-family="'MyriadPro-Regular'" font-size="46">9th to 12th Nov 2017</text>
</svg>
