<?xml version="1.0" encoding="iso-8859-1"?>
<!-- Generator: Adobe Illustrator 19.0.0, SVG Export Plug-In . SVG Version: 6.00 Build 0)  -->
<svg version="1.1" id="Layer_1" xmlns="http://www.w3.org/2000/svg" xmlns:xlink="http://www.w3.org/1999/xlink" x="0px" y="0px"
	 viewBox="0 0 512 512" style="enable-background:new 0 0 512 512;" xml:space="preserve">
<circle style="fill:#FF8E31;" cx="256" cy="256" r="256"/>
<path style="fill:#ED7425;" d="M510.067,286.958L377.779,154.693c-0.036,0-0.036-0.036-0.036-0.069l-3.983-3.991
	c-0.036,0-0.072,0-0.072-0.036c-2.452-1.644-5.343-2.598-8.451-2.598H146.762c-8.302,0-15.107,6.84-15.107,15.142V348.81
	c0,4.173,1.687,7.972,4.426,10.711l150.582,150.582C403.423,496.161,495.987,403.676,510.067,286.958z"/>
<path style="fill:#34495E;" d="M380.344,348.833c0,8.363-6.787,15.147-15.124,15.147H222.991c-8.32,0-15.122-6.784-15.122-15.147
	V163.141c0-8.315,6.802-15.127,15.122-15.127H365.22c8.338,0,15.124,6.812,15.124,15.127V348.833z"/>
<rect x="347.366" y="163.31" style="fill:#FFFFFF;" width="21.373" height="185.37"/>
<path style="fill:#5D6D7E;" d="M357.148,348.833c0,8.363-6.792,15.147-15.114,15.147H146.762c-8.302,0-15.107-6.784-15.107-15.147
	V163.141c0-8.315,6.807-15.127,15.107-15.127h195.269c8.323,0,15.114,6.812,15.114,15.127v185.692H357.148z"/>
<g>
	<rect x="146.125" y="179.533" style="fill:#FFFFFF;" width="2.348" height="11.786"/>
	<rect x="146.125" y="203.059" style="fill:#FFFFFF;" width="2.348" height="11.763"/>
	<rect x="146.125" y="226.586" style="fill:#FFFFFF;" width="2.348" height="11.763"/>
	<rect x="146.125" y="250.112" style="fill:#FFFFFF;" width="2.348" height="11.761"/>
	<rect x="146.125" y="273.638" style="fill:#FFFFFF;" width="2.348" height="11.763"/>
	<rect x="146.125" y="297.165" style="fill:#FFFFFF;" width="2.348" height="11.763"/>
	<rect x="146.125" y="320.666" style="fill:#FFFFFF;" width="2.348" height="11.789"/>
	<rect x="340.352" y="179.533" style="fill:#FFFFFF;" width="2.353" height="11.786"/>
	<rect x="340.352" y="203.059" style="fill:#FFFFFF;" width="2.353" height="11.763"/>
	<rect x="340.352" y="226.586" style="fill:#FFFFFF;" width="2.353" height="11.763"/>
	<rect x="340.352" y="250.112" style="fill:#FFFFFF;" width="2.353" height="11.761"/>
	<rect x="340.352" y="273.638" style="fill:#FFFFFF;" width="2.353" height="11.763"/>
	<rect x="340.352" y="297.165" style="fill:#FFFFFF;" width="2.353" height="11.763"/>
	<rect x="340.352" y="320.666" style="fill:#FFFFFF;" width="2.353" height="11.789"/>
	<rect x="163.197" y="162.483" style="fill:#FFFFFF;" width="12.506" height="2.34"/>
	<rect x="188.16" y="162.483" style="fill:#FFFFFF;" width="12.516" height="2.34"/>
	<rect x="213.146" y="162.483" style="fill:#FFFFFF;" width="12.513" height="2.34"/>
	<rect x="238.157" y="162.483" style="fill:#FFFFFF;" width="12.508" height="2.34"/>
	<rect x="263.142" y="162.483" style="fill:#FFFFFF;" width="12.516" height="2.34"/>
	<rect x="288.128" y="162.483" style="fill:#FFFFFF;" width="12.513" height="2.34"/>
	<rect x="313.114" y="162.483" style="fill:#FFFFFF;" width="12.506" height="2.34"/>
	<rect x="163.197" y="347.136" style="fill:#FFFFFF;" width="12.506" height="2.34"/>
	<rect x="188.16" y="347.136" style="fill:#FFFFFF;" width="12.516" height="2.34"/>
	<rect x="213.146" y="347.136" style="fill:#FFFFFF;" width="12.513" height="2.34"/>
	<rect x="238.157" y="347.136" style="fill:#FFFFFF;" width="12.508" height="2.34"/>
	<rect x="263.142" y="347.136" style="fill:#FFFFFF;" width="12.516" height="2.34"/>
	<rect x="288.128" y="347.136" style="fill:#FFFFFF;" width="12.513" height="2.34"/>
	<rect x="313.114" y="347.136" style="fill:#FFFFFF;" width="12.506" height="2.34"/>
	<path style="fill:#FFFFFF;" d="M335.27,347.146v2.34c4.081,0,7.429-3.323,7.429-7.424h-2.353
		C340.347,344.87,338.081,347.146,335.27,347.146z"/>
	<path style="fill:#FFFFFF;" d="M340.347,169.897h2.353c0-4.088-3.351-7.409-7.429-7.409v2.34
		C338.081,164.828,340.347,167.109,340.347,169.897z"/>
	<path style="fill:#FFFFFF;" d="M146.117,169.897h2.348c0-2.788,2.284-5.069,5.076-5.069v-2.34
		C149.466,162.488,146.117,165.811,146.117,169.897z"/>
	<path style="fill:#FFFFFF;" d="M148.462,342.06h-2.348c0,4.104,3.351,7.424,7.424,7.424v-2.34
		C150.746,347.146,148.462,344.87,148.462,342.06z"/>
</g>
<rect x="357.146" y="233.165" style="fill:#5D6D7E;" width="23.194" height="45.635"/>
<path style="fill:#34495E;" d="M357.148,233.175v45.614h-45.371c-5.788,0-11.594-2.204-16.041-6.615
	c-4.426-4.46-6.623-10.263-6.623-16.049v-0.23c0-5.829,2.196-11.625,6.623-16.041c4.444-4.46,10.253-6.679,16.041-6.679
	L357.148,233.175L357.148,233.175z"/>
<path style="fill:#FFFFFF;" d="M317.248,250.657c-2.947-2.949-7.718-2.949-10.644,0c-2.977,2.949-2.977,7.726,0,10.68
	c2.929,2.929,7.698,2.929,10.644,0C320.212,258.383,320.212,253.606,317.248,250.657z"/>
<g>
</g>
<g>
</g>
<g>
</g>
<g>
</g>
<g>
</g>
<g>
</g>
<g>
</g>
<g>
</g>
<g>
</g>
<g>
</g>
<g>
</g>
<g>
</g>
<g>
</g>
<g>
</g>
<g>
</g>
</svg>
