<?xml version="1.0" encoding="iso-8859-1"?>
<!-- Generator: Adobe Illustrator 19.0.0, SVG Export Plug-In . SVG Version: 6.00 Build 0)  -->
<svg version="1.1" id="Layer_1" xmlns="http://www.w3.org/2000/svg" xmlns:xlink="http://www.w3.org/1999/xlink" x="0px" y="0px"
	 viewBox="0 0 512 512" style="enable-background:new 0 0 512 512;" xml:space="preserve">
<polygon style="fill:#2C3E50;" points="358.569,0 241.961,83.4 241.961,102.376 358.569,18.976 475.177,102.376 475.177,83.4 "/>
<polygon style="fill:#E04F5F;" points="261.481,253.008 261.481,104.96 358.569,35.04 455.657,104.96 455.657,253.008 "/>
<rect x="323.697" y="144" style="fill:#415E72;" width="69.752" height="108.984"/>
<g>
	
		<rect x="274.661" y="381.809" transform="matrix(0.7879 -0.6158 0.6158 0.7879 -205.4992 275.193)" style="fill:#25B6D2;" width="44.168" height="108.216"/>
	<path style="fill:#25B6D2;" d="M294.657,506.208l-66.656-85.264c-60.512-16.864-102.968-71.192-104.704-133.984l-66.64-85.272
		c0,0-63.144,90.464,35.904,217.192S294.657,506.208,294.657,506.208z"/>
	
		<rect x="103.255" y="162.567" transform="matrix(0.7879 -0.6158 0.6158 0.7879 -106.8443 123.1405)" style="fill:#25B6D2;" width="44.168" height="108.216"/>
</g>
<g>
</g>
<g>
</g>
<g>
</g>
<g>
</g>
<g>
</g>
<g>
</g>
<g>
</g>
<g>
</g>
<g>
</g>
<g>
</g>
<g>
</g>
<g>
</g>
<g>
</g>
<g>
</g>
<g>
</g>
</svg>
